<svg width="29" height="29">
    <path d="M22.053 7.54a4.474 4.474 0 0 0-3.31-1.455 4.526 4.526 0 0 0-4.526 4.524c0 .35.04.7.082 1.05a12.9 12.9 0 0 1-9.3-4.77c-.39.69-.61 1.46-.65 2.26.03 1.6.83 2.99 2.02 3.79-.72-.02-1.41-.22-2.02-.57-.01.02-.01.04 0 .08-.01 2.17 1.55 4 3.63 4.44-.39.08-.79.13-1.21.16-.28-.03-.57-.05-.81-.08.54 1.77 2.21 3.08 4.2 3.15a9.564 9.564 0 0 1-5.66 1.94c-.34-.03-.7-.06-1.05-.08 2 1.27 4.38 2.02 6.94 2.02 8.31 0 12.86-6.9 12.84-12.85.02-.24.01-.43 0-.65.89-.62 1.65-1.42 2.26-2.34-.82.38-1.69.62-2.59.72a4.37 4.37 0 0 0 1.94-2.51c-.84.53-1.81.9-2.83 1.13z" />
</svg>